<?xml version="1.0" encoding="utf-8"?>
<!-- Generator: Adobe Illustrator 24.0.3, SVG Export Plug-In . SVG Version: 6.00 Build 0)  -->
<svg version="1.1" id="Layer_1" xmlns="http://www.w3.org/2000/svg" xmlns:xlink="http://www.w3.org/1999/xlink" x="0px" y="0px"
	 viewBox="0 0 178.3 152.6" style="enable-background:new 0 0 178.3 152.6;" xml:space="preserve">
<style type="text/css">
	.st0{fill:#FFFFFF;}
</style>
<title>epias-lacivert</title>
<polygon class="st0" points="13.6,77.2 29.7,77.2 29.7,65.5 13.6,65.5 13.6,42.6 30.4,42.6 30.4,30.9 0,30.9 0,120.2 30.6,120.2 
	30.6,108.6 13.6,108.6 "/>
<path class="st0" d="M68.2,34.7c-3.6-2.6-8.9-3.8-16-3.8H37.9v89.3h13.7V86h5.7c5.3,0,9.4-1.5,12.1-4.5s4.2-7.6,4.2-13.8V48.3
	C73.5,41.8,71.8,37.3,68.2,34.7z M59.9,71.3c0.1,0.8-0.2,1.7-0.8,2.3c-0.5,0.6-1.2,1-1.9,1.2c-0.9,0.3-1.8,0.4-2.7,0.4
	c-1,0-2,0.1-3,0.1V41.6H54c2.3,0,3.9,0.7,4.7,2s1.2,3.5,1.2,6.6V71.3L59.9,71.3z"/>
<rect x="78.5" y="30.9" class="st0" width="13.6" height="89.3"/>
<rect x="78.5" class="st0" width="13.6" height="22.6"/>
<path class="st0" d="M107.3,30.9l-10.4,89.3h12.3l1.6-13H124l1.9,13h12.2l-10.4-89.3C127.7,30.9,107.3,30.9,107.3,30.9z M111.6,95.1
	l5.1-45.5h0.9l4.9,45.5H111.6L111.6,95.1z"/>
<path class="st0" d="M172.4,32.3c-1.7-1.2-3.7-2-5.7-2.4c-4.2-0.9-8.5-0.9-12.6,0c-2.1,0.4-4,1.3-5.8,2.4c-1.7,1.2-3.1,2.8-4.1,4.6
	c-1.1,2.2-1.7,4.8-1.6,7.3V57c0,2.4,0.6,4.9,1.6,7.1c1.1,2.4,2.5,4.7,4.1,6.8c1.6,2.2,3.4,4.4,5.4,6.6c1.9,2.2,3.7,4.3,5.3,6.4
	c1.5,2,2.9,4.1,4.1,6.3c1,1.9,1.6,4.1,1.6,6.3v9.4c0,2.3-0.3,3.7-1,4.4c-0.8,0.8-1.9,1.2-3.1,1.1c-1.2,0.1-2.3-0.3-3.2-1.1
	c-0.7-0.7-1-2.2-1-4.4V86.4h-13.7V107c-0.1,2.5,0.5,5,1.6,7.3c1,1.8,2.4,3.4,4.1,4.6c1.7,1.2,3.7,2,5.8,2.4c4.2,0.9,8.5,0.9,12.6,0
	c2-0.4,4-1.3,5.7-2.4c1.7-1.2,3.2-2.8,4.2-4.6c1.1-2.3,1.7-4.8,1.6-7.3V91.1c-0.1-1.9-0.7-3.7-1.6-5.3c-1.2-2.2-2.6-4.3-4.1-6.3
	c-1.6-2.2-3.4-4.5-5.3-6.8s-3.7-4.5-5.3-6.5c-1.4-1.8-2.8-3.7-4-5.7c-0.9-1.2-1.5-2.7-1.6-4.2v-11c0-2.3,0.4-3.7,1-4.5
	c0.9-0.8,2-1.2,3.2-1.1c1.1-0.1,2.2,0.3,3.1,1.1c0.7,0.7,1,2.2,1,4.5V63h13.6V44.2c0.1-2.5-0.5-5-1.6-7.3
	C175.5,35.1,174.1,33.5,172.4,32.3z"/>
<polygon class="st0" points="154.5,130.3 154.5,152.6 168,152.6 168.1,152.6 168.1,130.3 "/>
</svg>
